<svg xmlns="http://www.w3.org/2000/svg" xmlns:xlink="http://www.w3.org/1999/xlink" width="142" zoomAndPan="magnify" viewBox="0 0 106.5 86.249997" height="115" preserveAspectRatio="xMidYMid meet" version="1.0"><defs><clipPath id="16f39992f6"><path d="M 0.210938 0 L 105.792969 0 L 105.792969 84.761719 L 0.210938 84.761719 Z M 0.210938 0 " clip-rule="nonzero"/></clipPath></defs><g clip-path="url(#16f39992f6)"><path fill="#000000" d="M 94.601562 30.171875 L 100.136719 61.160156 C 100.664062 64.113281 98.554688 66.410156 92.035156 68.050781 L 64.964844 74.75 C 62.65625 77.308594 61.933594 84.203125 63.910156 84.660156 C 63.910156 84.660156 85.910156 82.625 97.367188 81.640625 C 100.070312 81.378906 104.21875 77.503906 104.351562 74.683594 L 105.800781 37.195312 Z M 75.238281 67.394531 L 67.464844 28.597656 L 70.363281 27.941406 L 78.730469 65.625 C 79.257812 67.921875 97.367188 64.375 96.90625 61.882812 L 88.28125 13.300781 C 87.820312 10.738281 82.417969 1.023438 80.507812 1.285156 L 70.296875 2.859375 C 67.796875 3.253906 67.136719 6.078125 63.644531 6.734375 C 60.550781 7.324219 56.464844 0.0390625 53.699219 0.628906 L 43.492188 2.925781 C 40.660156 3.582031 40.527344 9.886719 37.429688 10.738281 C 34.269531 11.660156 32.226562 9.03125 29.988281 9.6875 L 22.019531 11.988281 C 18.792969 12.90625 18.726562 20.324219 15.628906 21.636719 C 12.796875 22.820312 10.359375 20.785156 8.253906 22.164062 L 1.734375 26.429688 C 0.21875 27.347656 1.007812 37.917969 1.796875 39.953125 L 13.980469 73.828125 C 14.640625 75.667969 28.207031 72.449219 27.746094 70.679688 L 19.25 39.164062 L 22.148438 38.507812 L 32.355469 75.929688 C 32.882812 77.964844 50.339844 74.289062 49.875 72.253906 C 47.042969 59.582031 41.445312 34.308594 41.445312 34.308594 L 44.34375 33.652344 L 53.367188 72.1875 C 53.894531 74.289062 75.761719 69.824219 75.234375 67.394531 Z M 75.238281 67.394531 " fill-opacity="1" fill-rule="nonzero"/></g></svg>