<svg xmlns="http://www.w3.org/2000/svg" xmlns:xlink="http://www.w3.org/1999/xlink" width="255" zoomAndPan="magnify" viewBox="0 0 191.25 191.249996" height="255" preserveAspectRatio="xMidYMid meet" version="1.0"><defs><clipPath id="b63617cd52"><path d="M 0 0 L 190.246094 0 L 190.246094 190.246094 L 0 190.246094 Z M 0 0 " clip-rule="nonzero"/></clipPath><clipPath id="bcedf7d2cb"><path d="M 95.121094 0 C 42.585938 0 0 42.585938 0 95.121094 C 0 147.65625 42.585938 190.246094 95.121094 190.246094 C 147.65625 190.246094 190.246094 147.65625 190.246094 95.121094 C 190.246094 42.585938 147.65625 0 95.121094 0 Z M 95.121094 0 " clip-rule="nonzero"/></clipPath><clipPath id="5327a390f7"><path d="M 5.957031 6.820312 L 182.5625 6.820312 L 182.5625 183.425781 L 5.957031 183.425781 Z M 5.957031 6.820312 " clip-rule="nonzero"/></clipPath><clipPath id="217a324aa4"><path d="M 94.261719 6.820312 C 45.492188 6.820312 5.957031 46.355469 5.957031 95.121094 C 5.957031 143.890625 45.492188 183.425781 94.261719 183.425781 C 143.027344 183.425781 182.5625 143.890625 182.5625 95.121094 C 182.5625 46.355469 143.027344 6.820312 94.261719 6.820312 Z M 94.261719 6.820312 " clip-rule="nonzero"/></clipPath><clipPath id="56154dafe2"><path d="M 56.160156 20.363281 L 133.792969 20.363281 L 133.792969 163.566406 L 56.160156 163.566406 Z M 56.160156 20.363281 " clip-rule="nonzero"/></clipPath></defs><g clip-path="url(#b63617cd52)"><g clip-path="url(#bcedf7d2cb)"><path fill="#ae4300" d="M 0 0 L 190.246094 0 L 190.246094 190.246094 L 0 190.246094 Z M 0 0 " fill-opacity="1" fill-rule="nonzero"/></g></g><g clip-path="url(#5327a390f7)"><g clip-path="url(#217a324aa4)"><path fill="#231f20" d="M 5.957031 6.820312 L 182.5625 6.820312 L 182.5625 183.425781 L 5.957031 183.425781 Z M 5.957031 6.820312 " fill-opacity="1" fill-rule="nonzero"/></g></g><g clip-path="url(#56154dafe2)"><path fill="#ff914d" d="M 133.933594 86.65625 C 133.878906 91.554688 133.710938 96.445312 133.402344 101.328125 C 133.308594 102.800781 132.933594 104.5 132.074219 105.625 C 130.507812 107.679688 129.257812 109.691406 129.332031 112.371094 C 129.503906 119.171875 129.28125 126.015625 129.929688 132.769531 C 130.25 136.058594 129.769531 138.707031 128.367188 141.578125 C 124.414062 149.703125 118.996094 156.671875 112.351562 162.714844 C 111.757812 163.25 110.355469 163.914062 109.179688 163.355469 C 108.996094 163.265625 108.878906 163.089844 108.878906 162.890625 C 108.867188 159.65625 108.707031 154.40625 108.570312 151.304688 C 107.902344 136.015625 106.796875 120.722656 108.792969 105.445312 C 109.0625 103.371094 109.175781 101.214844 108.929688 99.152344 C 108.601562 96.46875 109.800781 95.667969 112.1875 95.320312 C 115.339844 94.863281 122.511719 93.050781 125.875 91.199219 C 127.054688 90.546875 127.765625 89.894531 127.671875 89.289062 C 127.226562 86.421875 127.058594 83.519531 126.675781 80.644531 C 126.128906 76.46875 119.742188 77.519531 118.78125 77.796875 C 113.121094 79.449219 107.441406 81.046875 101.824219 82.835938 C 101.15625 83.046875 100.128906 83.792969 100.417969 85.058594 C 101.308594 89.972656 102.183594 94.90625 103.519531 99.714844 C 105.183594 105.714844 105.054688 105.277344 100.117188 109.285156 C 98.238281 110.804688 96.667969 111.554688 95.117188 111.574219 C 93.570312 111.554688 92 110.804688 90.121094 109.285156 C 85.179688 105.277344 85.054688 105.714844 86.71875 99.714844 C 88.054688 94.90625 88.929688 89.972656 89.820312 85.058594 C 90.109375 83.792969 89.082031 83.046875 88.414062 82.835938 C 82.796875 81.046875 77.117188 79.449219 71.457031 77.796875 C 70.496094 77.519531 64.109375 76.46875 63.5625 80.644531 C 63.179688 83.519531 63.011719 86.421875 62.566406 89.289062 C 62.472656 89.894531 63.183594 90.546875 64.363281 91.199219 C 67.726562 93.050781 74.894531 94.863281 78.050781 95.320312 C 80.433594 95.667969 81.636719 96.46875 81.304688 99.152344 C 81.058594 101.214844 81.175781 103.371094 81.445312 105.445312 C 83.4375 120.722656 82.332031 136.015625 81.667969 151.304688 C 81.53125 154.40625 81.371094 159.65625 81.359375 162.890625 C 81.359375 163.089844 81.238281 163.265625 81.058594 163.355469 C 79.882812 163.914062 78.476562 163.25 77.886719 162.714844 C 71.242188 156.671875 65.824219 149.703125 61.867188 141.578125 C 60.46875 138.707031 59.988281 136.058594 60.308594 132.769531 C 60.957031 126.015625 60.734375 119.171875 60.90625 112.371094 C 60.980469 109.691406 59.730469 107.679688 58.160156 105.625 C 57.300781 104.5 56.929688 102.800781 56.832031 101.328125 C 56.527344 96.445312 56.359375 91.554688 56.304688 86.65625 C 56.214844 79.0625 56.023438 71.449219 56.316406 63.863281 C 56.785156 52.074219 62.925781 43.347656 72.148438 36.554688 C 79.148438 31.398438 86.285156 26.425781 93.246094 21.210938 C 93.988281 20.65625 94.554688 20.375 95.117188 20.363281 C 95.683594 20.375 96.246094 20.65625 96.992188 21.210938 C 103.949219 26.425781 111.089844 31.398438 118.089844 36.554688 C 127.3125 43.347656 133.453125 52.074219 133.917969 63.863281 C 134.214844 71.449219 134.023438 79.0625 133.933594 86.65625 " fill-opacity="1" fill-rule="nonzero"/></g></svg>