<svg xmlns="http://www.w3.org/2000/svg" xmlns:xlink="http://www.w3.org/1999/xlink" width="107" zoomAndPan="magnify" viewBox="0 0 80.25 86.249996" height="115" preserveAspectRatio="xMidYMid meet" version="1.0"><defs><clipPath id="ced97e2436"><path d="M 0 0.0273438 L 78.765625 0.0273438 L 78.765625 84.734375 L 0 84.734375 Z M 0 0.0273438 " clip-rule="nonzero"/></clipPath></defs><g clip-path="url(#ced97e2436)"><path fill="#000000" d="M 0.0078125 45.40625 C 0.0078125 45.40625 3.691406 39.355469 15.152344 39.355469 C 26.617188 39.355469 30.296875 48.433594 30.296875 48.433594 C 30.296875 48.433594 42.410156 36.332031 54.527344 48.433594 C 54.527344 48.433594 42.246094 25.175781 39.382812 15.152344 L 33.324219 18.179688 L 21.207031 18.179688 C 21.207031 18.179688 14.210938 7.183594 24.238281 0.0273438 C 24.238281 0.0273438 39.871094 1.949219 48.46875 9.105469 C 57.066406 16.257812 74.457031 27.453125 78.757812 57.507812 C 78.757812 57.507812 68.855469 69.777344 54.527344 72.636719 C 40.195312 75.496094 27.265625 72.636719 27.265625 72.636719 C 27.265625 72.636719 17.203125 84.734375 0.0078125 84.734375 Z M 0.0078125 45.40625 " fill-opacity="1" fill-rule="nonzero"/></g></svg>