<svg xmlns="http://www.w3.org/2000/svg" xmlns:xlink="http://www.w3.org/1999/xlink" width="826" zoomAndPan="magnify" viewBox="0 0 619.5 92.249997" height="123" preserveAspectRatio="xMidYMid meet" version="1.0"><defs><g/></defs><g fill="#000000" fill-opacity="1"><g transform="translate(58.225766, 64.477673)"><g><path d="M 41.65625 -39.671875 L 41.65625 -31.734375 L 9.921875 -31.734375 L 9.921875 -23.8125 L 33.71875 -23.8125 C 35.175781 -23.8125 36.507812 -23.453125 37.71875 -22.734375 C 38.925781 -22.023438 39.882812 -21.066406 40.59375 -19.859375 C 41.300781 -18.648438 41.65625 -17.320312 41.65625 -15.875 L 41.65625 -7.9375 C 41.65625 -6.476562 41.300781 -5.144531 40.59375 -3.9375 C 39.882812 -2.726562 38.925781 -1.769531 37.71875 -1.0625 C 36.507812 -0.351562 35.175781 0 33.71875 0 L 1.984375 0 L 1.984375 -7.9375 L 33.71875 -7.9375 L 33.71875 -15.875 L 9.921875 -15.875 C 8.460938 -15.875 7.128906 -16.226562 5.921875 -16.9375 C 4.710938 -17.644531 3.753906 -18.601562 3.046875 -19.8125 C 2.335938 -21.019531 1.984375 -22.351562 1.984375 -23.8125 L 1.984375 -31.734375 C 1.984375 -33.191406 2.335938 -34.523438 3.046875 -35.734375 C 3.753906 -36.941406 4.710938 -37.898438 5.921875 -38.609375 C 7.128906 -39.316406 8.460938 -39.671875 9.921875 -39.671875 Z M 41.65625 -39.671875 "/></g></g></g><g fill="#000000" fill-opacity="1"><g transform="translate(101.864174, 64.477673)"><g><path d="M 33.71875 -39.671875 C 35.175781 -39.671875 36.507812 -39.316406 37.71875 -38.609375 C 38.925781 -37.898438 39.882812 -36.941406 40.59375 -35.734375 C 41.300781 -34.523438 41.65625 -33.191406 41.65625 -31.734375 L 41.65625 -23.8125 C 41.65625 -22.351562 41.300781 -21.019531 40.59375 -19.8125 C 39.882812 -18.601562 38.925781 -17.644531 37.71875 -16.9375 C 36.507812 -16.226562 35.175781 -15.875 33.71875 -15.875 L 9.921875 -15.875 L 9.921875 0 L 1.984375 0 L 1.984375 -39.671875 Z M 9.921875 -23.8125 L 33.71875 -23.8125 L 33.71875 -31.734375 L 9.921875 -31.734375 Z M 9.921875 -23.8125 "/></g></g></g><g fill="#000000" fill-opacity="1"><g transform="translate(145.502581, 64.477673)"><g><path d="M 9.921875 -39.671875 L 33.71875 -39.671875 C 35.175781 -39.671875 36.507812 -39.316406 37.71875 -38.609375 C 38.925781 -37.898438 39.882812 -36.941406 40.59375 -35.734375 C 41.300781 -34.523438 41.65625 -33.191406 41.65625 -31.734375 L 41.65625 0 L 33.71875 0 L 33.71875 -15.875 L 9.921875 -15.875 L 9.921875 0 L 1.984375 0 L 1.984375 -31.734375 C 1.984375 -33.191406 2.335938 -34.523438 3.046875 -35.734375 C 3.753906 -36.941406 4.710938 -37.898438 5.921875 -38.609375 C 7.128906 -39.316406 8.460938 -39.671875 9.921875 -39.671875 Z M 9.921875 -31.734375 L 9.921875 -23.8125 L 33.71875 -23.8125 L 33.71875 -31.734375 Z M 9.921875 -31.734375 "/></g></g></g><g fill="#000000" fill-opacity="1"><g transform="translate(189.140989, 64.477673)"><g><path d="M 41.65625 -31.734375 L 41.65625 -23.8125 C 41.65625 -22.351562 41.300781 -21.019531 40.59375 -19.8125 C 39.882812 -18.601562 38.925781 -17.644531 37.71875 -16.9375 C 36.507812 -16.226562 35.175781 -15.875 33.71875 -15.875 L 25.78125 -15.875 L 33.71875 -7.9375 L 41.65625 -7.9375 L 41.65625 0 L 32.140625 0 C 31.015625 0 30.054688 -0.394531 29.265625 -1.1875 L 14.578125 -15.875 L 9.921875 -15.875 L 9.921875 0 L 1.984375 0 L 1.984375 -39.671875 L 33.71875 -39.671875 C 35.175781 -39.671875 36.507812 -39.316406 37.71875 -38.609375 C 38.925781 -37.898438 39.882812 -36.941406 40.59375 -35.734375 C 41.300781 -34.523438 41.65625 -33.191406 41.65625 -31.734375 Z M 33.71875 -31.734375 L 9.921875 -31.734375 L 9.921875 -23.8125 L 33.71875 -23.8125 Z M 33.71875 -31.734375 "/></g></g></g><g fill="#000000" fill-opacity="1"><g transform="translate(232.779397, 64.477673)"><g><path d="M 41.65625 -39.671875 L 41.65625 -31.734375 L 25.78125 -31.734375 L 25.78125 0 L 17.859375 0 L 17.859375 -31.734375 L 1.984375 -31.734375 L 1.984375 -39.671875 Z M 41.65625 -39.671875 "/></g></g></g><g fill="#000000" fill-opacity="1"><g transform="translate(276.417805, 64.477673)"><g><path d="M 9.921875 -39.671875 L 33.71875 -39.671875 C 35.175781 -39.671875 36.507812 -39.316406 37.71875 -38.609375 C 38.925781 -37.898438 39.882812 -36.941406 40.59375 -35.734375 C 41.300781 -34.523438 41.65625 -33.191406 41.65625 -31.734375 L 41.65625 0 L 33.71875 0 L 33.71875 -15.875 L 9.921875 -15.875 L 9.921875 0 L 1.984375 0 L 1.984375 -31.734375 C 1.984375 -33.191406 2.335938 -34.523438 3.046875 -35.734375 C 3.753906 -36.941406 4.710938 -37.898438 5.921875 -38.609375 C 7.128906 -39.316406 8.460938 -39.671875 9.921875 -39.671875 Z M 9.921875 -31.734375 L 9.921875 -23.8125 L 33.71875 -23.8125 L 33.71875 -31.734375 Z M 9.921875 -31.734375 "/></g></g></g><g fill="#000000" fill-opacity="1"><g transform="translate(320.056212, 64.477673)"><g><path d="M 9.921875 0 L 1.984375 0 L 1.984375 -35.703125 C 1.984375 -36.796875 2.367188 -37.726562 3.140625 -38.5 C 3.921875 -39.28125 4.859375 -39.671875 5.953125 -39.671875 C 7.046875 -39.671875 7.988281 -39.273438 8.78125 -38.484375 L 33.71875 -13.546875 L 33.71875 -39.671875 L 41.65625 -39.671875 L 41.65625 -3.96875 C 41.65625 -2.875 41.265625 -1.9375 40.484375 -1.15625 C 39.710938 -0.382812 38.78125 0 37.6875 0 C 36.59375 0 35.648438 -0.394531 34.859375 -1.1875 L 9.921875 -26.140625 Z M 9.921875 0 "/></g></g></g><g fill="#000000" fill-opacity="1"><g transform="translate(363.69462, 64.477673)"><g/></g></g><g fill="#000000" fill-opacity="1"><g transform="translate(385.513823, 64.477673)"><g><path d="M 41.65625 -7.9375 L 41.65625 0 L 5.953125 0 C 4.859375 0 3.921875 -0.382812 3.140625 -1.15625 C 2.367188 -1.9375 1.984375 -2.875 1.984375 -3.96875 C 1.984375 -5.0625 2.378906 -6.003906 3.171875 -6.796875 L 28.125 -31.734375 L 1.984375 -31.734375 L 1.984375 -39.671875 L 37.6875 -39.671875 C 38.78125 -39.671875 39.710938 -39.28125 40.484375 -38.5 C 41.265625 -37.726562 41.65625 -36.796875 41.65625 -35.703125 C 41.65625 -34.617188 41.257812 -33.675781 40.46875 -32.875 L 15.515625 -7.9375 Z M 41.65625 -7.9375 "/></g></g></g><g fill="#000000" fill-opacity="1"><g transform="translate(429.152231, 64.477673)"><g><path d="M 33.71875 0 L 9.921875 0 C 8.460938 0 7.128906 -0.351562 5.921875 -1.0625 C 4.710938 -1.769531 3.753906 -2.726562 3.046875 -3.9375 C 2.335938 -5.144531 1.984375 -6.476562 1.984375 -7.9375 L 1.984375 -31.734375 C 1.984375 -33.191406 2.335938 -34.523438 3.046875 -35.734375 C 3.753906 -36.941406 4.710938 -37.898438 5.921875 -38.609375 C 7.128906 -39.316406 8.460938 -39.671875 9.921875 -39.671875 L 33.71875 -39.671875 C 35.175781 -39.671875 36.507812 -39.316406 37.71875 -38.609375 C 38.925781 -37.898438 39.882812 -36.941406 40.59375 -35.734375 C 41.300781 -34.523438 41.65625 -33.191406 41.65625 -31.734375 L 41.65625 -7.9375 C 41.65625 -6.507812 41.300781 -5.191406 40.59375 -3.984375 C 39.882812 -2.785156 38.929688 -1.820312 37.734375 -1.09375 C 36.546875 -0.363281 35.207031 0 33.71875 0 Z M 9.921875 -31.734375 L 9.921875 -7.9375 L 33.71875 -7.9375 L 33.71875 -31.734375 Z M 9.921875 -31.734375 "/></g></g></g><g fill="#000000" fill-opacity="1"><g transform="translate(472.790639, 64.477673)"><g><path d="M 9.921875 0 L 1.984375 0 L 1.984375 -35.703125 C 1.984375 -36.796875 2.367188 -37.726562 3.140625 -38.5 C 3.921875 -39.28125 4.859375 -39.671875 5.953125 -39.671875 C 7.046875 -39.671875 7.988281 -39.273438 8.78125 -38.484375 L 33.71875 -13.546875 L 33.71875 -39.671875 L 41.65625 -39.671875 L 41.65625 -3.96875 C 41.65625 -2.875 41.265625 -1.9375 40.484375 -1.15625 C 39.710938 -0.382812 38.78125 0 37.6875 0 C 36.59375 0 35.648438 -0.394531 34.859375 -1.1875 L 9.921875 -26.140625 Z M 9.921875 0 "/></g></g></g><g fill="#000000" fill-opacity="1"><g transform="translate(516.429046, 64.477673)"><g><path d="M 41.65625 -39.671875 L 41.65625 -31.734375 L 9.921875 -31.734375 L 9.921875 -23.8125 L 41.65625 -23.8125 L 41.65625 -15.875 L 9.921875 -15.875 L 9.921875 -7.9375 L 41.65625 -7.9375 L 41.65625 0 L 9.921875 0 C 8.460938 0 7.128906 -0.351562 5.921875 -1.0625 C 4.710938 -1.769531 3.753906 -2.726562 3.046875 -3.9375 C 2.335938 -5.144531 1.984375 -6.476562 1.984375 -7.9375 L 1.984375 -31.734375 C 1.984375 -33.191406 2.335938 -34.523438 3.046875 -35.734375 C 3.753906 -36.941406 4.710938 -37.898438 5.921875 -38.609375 C 7.128906 -39.316406 8.460938 -39.671875 9.921875 -39.671875 Z M 41.65625 -39.671875 "/></g></g></g></svg>