<svg xmlns="http://www.w3.org/2000/svg" xmlns:xlink="http://www.w3.org/1999/xlink" width="810" zoomAndPan="magnify" viewBox="0 0 607.5 59.249999" height="79" preserveAspectRatio="xMidYMid meet" version="1.0"><defs><g/></defs><g fill="#ffde59" fill-opacity="1"><g transform="translate(108.150835, 41.615341)"><g><path d="M 26.546875 0 L 1.265625 0 L 1.265625 -5.0625 L 11.375 -5.0625 L 11.375 -20.234375 L 1.265625 -20.234375 L 1.265625 -25.28125 L 26.546875 -25.28125 L 26.546875 -20.234375 L 16.4375 -20.234375 L 16.4375 -5.0625 L 26.546875 -5.0625 Z M 26.546875 0 "/></g></g></g><g fill="#ffde59" fill-opacity="1"><g transform="translate(135.952004, 41.615341)"><g><path d="M 2.53125 -15.171875 L 0 -15.171875 L 0 -20.234375 L 2.53125 -20.234375 L 2.53125 -25.28125 L 7.59375 -25.28125 L 7.59375 -20.234375 C 7.59375 -19.304688 7.363281 -18.457031 6.90625 -17.6875 C 6.457031 -16.914062 5.847656 -16.300781 5.078125 -15.84375 C 4.304688 -15.394531 3.457031 -15.171875 2.53125 -15.171875 Z M 2.53125 -15.171875 "/></g></g></g><g fill="#ffde59" fill-opacity="1"><g transform="translate(143.534143, 41.615341)"><g><path d="M 6.328125 -25.28125 L 21.5 -25.28125 C 22.425781 -25.28125 23.269531 -25.050781 24.03125 -24.59375 C 24.800781 -24.144531 25.410156 -23.535156 25.859375 -22.765625 C 26.316406 -22.003906 26.546875 -21.160156 26.546875 -20.234375 L 26.546875 0 L 21.5 0 L 21.5 -20.234375 L 16.4375 -20.234375 L 16.4375 0 L 11.375 0 L 11.375 -20.234375 L 6.328125 -20.234375 L 6.328125 0 L 1.265625 0 L 1.265625 -20.234375 C 1.265625 -21.160156 1.488281 -22.003906 1.9375 -22.765625 C 2.394531 -23.535156 3.007812 -24.144531 3.78125 -24.59375 C 4.550781 -25.050781 5.398438 -25.28125 6.328125 -25.28125 Z M 6.328125 -25.28125 "/></g></g></g><g fill="#ffde59" fill-opacity="1"><g transform="translate(171.335312, 41.615341)"><g/></g></g><g fill="#ffde59" fill-opacity="1"><g transform="translate(185.235896, 41.615341)"><g><path d="M 21.5 0 L 6.328125 0 C 5.398438 0 4.550781 -0.222656 3.78125 -0.671875 C 3.007812 -1.128906 2.394531 -1.742188 1.9375 -2.515625 C 1.488281 -3.285156 1.265625 -4.132812 1.265625 -5.0625 L 1.265625 -25.28125 L 6.328125 -25.28125 L 6.328125 -5.0625 L 21.5 -5.0625 L 21.5 -25.28125 L 26.546875 -25.28125 L 26.546875 -5.0625 C 26.546875 -4.132812 26.316406 -3.285156 25.859375 -2.515625 C 25.410156 -1.742188 24.800781 -1.128906 24.03125 -0.671875 C 23.269531 -0.222656 22.425781 0 21.5 0 Z M 21.5 0 "/></g></g></g><g fill="#ffde59" fill-opacity="1"><g transform="translate(213.037065, 41.615341)"><g><path d="M 6.328125 0 L 1.265625 0 L 1.265625 -22.765625 C 1.265625 -23.453125 1.507812 -24.039062 2 -24.53125 C 2.5 -25.03125 3.097656 -25.28125 3.796875 -25.28125 C 4.492188 -25.28125 5.09375 -25.03125 5.59375 -24.53125 L 21.5 -8.625 L 21.5 -25.28125 L 26.546875 -25.28125 L 26.546875 -2.53125 C 26.546875 -1.832031 26.296875 -1.234375 25.796875 -0.734375 C 25.304688 -0.242188 24.710938 0 24.015625 0 C 23.328125 0 22.726562 -0.253906 22.21875 -0.765625 L 6.328125 -16.65625 Z M 6.328125 0 "/></g></g></g><g fill="#ffde59" fill-opacity="1"><g transform="translate(240.838233, 41.615341)"><g><path d="M 26.546875 -20.234375 L 26.546875 -15.171875 C 26.546875 -14.472656 26.296875 -13.875 25.796875 -13.375 C 25.304688 -12.882812 24.710938 -12.640625 24.015625 -12.640625 C 24.710938 -12.640625 25.304688 -12.390625 25.796875 -11.890625 C 26.296875 -11.398438 26.546875 -10.804688 26.546875 -10.109375 L 26.546875 -5.0625 C 26.546875 -4.15625 26.316406 -3.316406 25.859375 -2.546875 C 25.410156 -1.773438 24.804688 -1.15625 24.046875 -0.6875 C 23.296875 -0.226562 22.445312 0 21.5 0 L 1.265625 0 L 1.265625 -25.28125 L 21.5 -25.28125 C 22.445312 -25.28125 23.296875 -25.046875 24.046875 -24.578125 C 24.804688 -24.117188 25.410156 -23.507812 25.859375 -22.75 C 26.316406 -22 26.546875 -21.160156 26.546875 -20.234375 Z M 21.5 -20.234375 L 6.328125 -20.234375 L 6.328125 -15.171875 L 21.5 -15.171875 Z M 6.328125 -5.0625 L 21.5 -5.0625 L 21.5 -10.109375 L 6.328125 -10.109375 Z M 6.328125 -5.0625 "/></g></g></g><g fill="#ffde59" fill-opacity="1"><g transform="translate(268.639402, 41.615341)"><g><path d="M 26.546875 -20.234375 L 26.546875 -15.171875 C 26.546875 -14.242188 26.316406 -13.394531 25.859375 -12.625 C 25.410156 -11.851562 24.800781 -11.238281 24.03125 -10.78125 C 23.269531 -10.332031 22.425781 -10.109375 21.5 -10.109375 L 16.4375 -10.109375 L 21.5 -5.0625 L 26.546875 -5.0625 L 26.546875 0 L 20.484375 0 C 19.765625 0 19.15625 -0.253906 18.65625 -0.765625 L 9.296875 -10.109375 L 6.328125 -10.109375 L 6.328125 0 L 1.265625 0 L 1.265625 -25.28125 L 21.5 -25.28125 C 22.425781 -25.28125 23.269531 -25.050781 24.03125 -24.59375 C 24.800781 -24.144531 25.410156 -23.535156 25.859375 -22.765625 C 26.316406 -22.003906 26.546875 -21.160156 26.546875 -20.234375 Z M 21.5 -20.234375 L 6.328125 -20.234375 L 6.328125 -15.171875 L 21.5 -15.171875 Z M 21.5 -20.234375 "/></g></g></g><g fill="#ffde59" fill-opacity="1"><g transform="translate(296.440571, 41.615341)"><g><path d="M 26.546875 -25.28125 L 26.546875 -20.234375 L 6.328125 -20.234375 L 6.328125 -15.171875 L 26.546875 -15.171875 L 26.546875 -10.109375 L 6.328125 -10.109375 L 6.328125 -5.0625 L 26.546875 -5.0625 L 26.546875 0 L 6.328125 0 C 5.398438 0 4.550781 -0.222656 3.78125 -0.671875 C 3.007812 -1.128906 2.394531 -1.742188 1.9375 -2.515625 C 1.488281 -3.285156 1.265625 -4.132812 1.265625 -5.0625 L 1.265625 -20.234375 C 1.265625 -21.160156 1.488281 -22.003906 1.9375 -22.765625 C 2.394531 -23.535156 3.007812 -24.144531 3.78125 -24.59375 C 4.550781 -25.050781 5.398438 -25.28125 6.328125 -25.28125 Z M 26.546875 -25.28125 "/></g></g></g><g fill="#ffde59" fill-opacity="1"><g transform="translate(324.241728, 41.615341)"><g><path d="M 6.328125 -25.28125 L 21.5 -25.28125 C 22.425781 -25.28125 23.269531 -25.050781 24.03125 -24.59375 C 24.800781 -24.144531 25.410156 -23.535156 25.859375 -22.765625 C 26.316406 -22.003906 26.546875 -21.160156 26.546875 -20.234375 L 26.546875 0 L 21.5 0 L 21.5 -10.109375 L 6.328125 -10.109375 L 6.328125 0 L 1.265625 0 L 1.265625 -20.234375 C 1.265625 -21.160156 1.488281 -22.003906 1.9375 -22.765625 C 2.394531 -23.535156 3.007812 -24.144531 3.78125 -24.59375 C 4.550781 -25.050781 5.398438 -25.28125 6.328125 -25.28125 Z M 6.328125 -20.234375 L 6.328125 -15.171875 L 21.5 -15.171875 L 21.5 -20.234375 Z M 6.328125 -20.234375 "/></g></g></g><g fill="#ffde59" fill-opacity="1"><g transform="translate(352.042897, 41.615341)"><g><path d="M 26.546875 -25.28125 L 26.546875 -20.234375 L 21.5 -20.234375 L 13.90625 -12.640625 L 21.5 -5.0625 L 26.546875 -5.0625 L 26.546875 0 L 20.484375 0 C 19.765625 0 19.15625 -0.253906 18.65625 -0.765625 L 9.296875 -10.109375 L 6.328125 -10.109375 L 6.328125 0 L 1.265625 0 L 1.265625 -25.28125 L 6.328125 -25.28125 L 6.328125 -15.171875 L 9.296875 -15.171875 L 18.65625 -24.53125 C 19.15625 -25.03125 19.765625 -25.28125 20.484375 -25.28125 Z M 26.546875 -25.28125 "/></g></g></g><g fill="#ffde59" fill-opacity="1"><g transform="translate(379.844065, 41.615341)"><g><path d="M 6.328125 -25.28125 L 21.5 -25.28125 C 22.425781 -25.28125 23.269531 -25.050781 24.03125 -24.59375 C 24.800781 -24.144531 25.410156 -23.535156 25.859375 -22.765625 C 26.316406 -22.003906 26.546875 -21.160156 26.546875 -20.234375 L 26.546875 0 L 21.5 0 L 21.5 -10.109375 L 6.328125 -10.109375 L 6.328125 0 L 1.265625 0 L 1.265625 -20.234375 C 1.265625 -21.160156 1.488281 -22.003906 1.9375 -22.765625 C 2.394531 -23.535156 3.007812 -24.144531 3.78125 -24.59375 C 4.550781 -25.050781 5.398438 -25.28125 6.328125 -25.28125 Z M 6.328125 -20.234375 L 6.328125 -15.171875 L 21.5 -15.171875 L 21.5 -20.234375 Z M 6.328125 -20.234375 "/></g></g></g><g fill="#ffde59" fill-opacity="1"><g transform="translate(407.645234, 41.615341)"><g><path d="M 26.546875 -20.234375 L 26.546875 -15.171875 C 26.546875 -14.472656 26.296875 -13.875 25.796875 -13.375 C 25.304688 -12.882812 24.710938 -12.640625 24.015625 -12.640625 C 24.710938 -12.640625 25.304688 -12.390625 25.796875 -11.890625 C 26.296875 -11.398438 26.546875 -10.804688 26.546875 -10.109375 L 26.546875 -5.0625 C 26.546875 -4.15625 26.316406 -3.316406 25.859375 -2.546875 C 25.410156 -1.773438 24.804688 -1.15625 24.046875 -0.6875 C 23.296875 -0.226562 22.445312 0 21.5 0 L 1.265625 0 L 1.265625 -25.28125 L 21.5 -25.28125 C 22.445312 -25.28125 23.296875 -25.046875 24.046875 -24.578125 C 24.804688 -24.117188 25.410156 -23.507812 25.859375 -22.75 C 26.316406 -22 26.546875 -21.160156 26.546875 -20.234375 Z M 21.5 -20.234375 L 6.328125 -20.234375 L 6.328125 -15.171875 L 21.5 -15.171875 Z M 6.328125 -5.0625 L 21.5 -5.0625 L 21.5 -10.109375 L 6.328125 -10.109375 Z M 6.328125 -5.0625 "/></g></g></g><g fill="#ffde59" fill-opacity="1"><g transform="translate(435.446402, 41.615341)"><g><path d="M 26.546875 0 L 6.328125 0 C 5.398438 0 4.550781 -0.222656 3.78125 -0.671875 C 3.007812 -1.128906 2.394531 -1.742188 1.9375 -2.515625 C 1.488281 -3.285156 1.265625 -4.132812 1.265625 -5.0625 L 1.265625 -25.28125 L 6.328125 -25.28125 L 6.328125 -5.0625 L 26.546875 -5.0625 Z M 26.546875 0 "/></g></g></g><g fill="#ffde59" fill-opacity="1"><g transform="translate(463.247571, 41.615341)"><g><path d="M 26.546875 -25.28125 L 26.546875 -20.234375 L 6.328125 -20.234375 L 6.328125 -15.171875 L 26.546875 -15.171875 L 26.546875 -10.109375 L 6.328125 -10.109375 L 6.328125 -5.0625 L 26.546875 -5.0625 L 26.546875 0 L 6.328125 0 C 5.398438 0 4.550781 -0.222656 3.78125 -0.671875 C 3.007812 -1.128906 2.394531 -1.742188 1.9375 -2.515625 C 1.488281 -3.285156 1.265625 -4.132812 1.265625 -5.0625 L 1.265625 -20.234375 C 1.265625 -21.160156 1.488281 -22.003906 1.9375 -22.765625 C 2.394531 -23.535156 3.007812 -24.144531 3.78125 -24.59375 C 4.550781 -25.050781 5.398438 -25.28125 6.328125 -25.28125 Z M 26.546875 -25.28125 "/></g></g></g><g fill="#ffde59" fill-opacity="1"><g transform="translate(491.048739, 41.615341)"><g><path d="M 6.328125 0 L 1.265625 0 L 1.265625 -5.0625 L 6.328125 -5.0625 Z M 6.328125 0 "/></g></g></g></svg>